<?xml version="1.0" encoding="utf-8"?>
<!-- Generator: Adobe Illustrator 24.0.1, SVG Export Plug-In . SVG Version: 6.00 Build 0)  -->
<svg version="1.1" id="Layer_1" xmlns="http://www.w3.org/2000/svg" xmlns:xlink="http://www.w3.org/1999/xlink" x="0px" y="0px"
	 viewBox="0 0 1074.3 1029" style="enable-background:new 0 0 1074.3 1029;" xml:space="preserve">
<style type="text/css">
	.st0{fill:#39A6A6;}
	.st1{fill:#FAAF3B;}
	.st2{fill:#263238;}
</style>
<title>Asset 14</title>
<g id="Layer_2_1_">
	<g id="Layer_1-2">
		<polygon class="st0" points="560,515.3 560,515.3 560,759.4 805.3,515.5 805.3,271.6 		"/>
		<polygon class="st1" points="514.4,759.4 270.3,515.6 25,515.6 514.4,1004 514.4,759.4 		"/>
		<polygon class="st2" points="25,759.4 25,1004 514.4,1004 269.2,759.4 		"/>
		<polygon class="st2" points="25,514.3 25,515.6 270.3,515.6 514.4,759.4 514.4,515.3 268.5,271.6 514.4,271.6 514.4,25 25,25 		
			"/>
		<polygon class="st2" points="560,25 560,271.6 805.3,271.6 805.3,515.5 560,759.4 560,1004 805.3,1004 805.3,759.4 1049.3,516.6 
			1049.3,25 		"/>
	</g>
</g>
</svg>
